<?xml version="1.0" encoding="iso-8859-1"?>
<!-- Uploaded to: SVG Repo, www.svgrepo.com, Generator: SVG Repo Mixer Tools -->
<!DOCTYPE svg PUBLIC "-//W3C//DTD SVG 1.1//EN" "http://www.w3.org/Graphics/SVG/1.1/DTD/svg11.dtd">
<svg fill="#000000" version="1.1" id="Capa_1" xmlns="http://www.w3.org/2000/svg" xmlns:xlink="http://www.w3.org/1999/xlink" 
	 width="800px" height="800px" viewBox="0 0 179.42 179.421"
	 xml:space="preserve">
<g>
	<path d="M153.308,126.087c-18.585-8.448-13-33.04-0.921-45.989c0.216-0.232,0.396-0.469,0.551-0.708
		c2.231,2.382,6.34-0.462,4.842-3.773c-5.59-12.356-16.333-22.499-30.293-23.993c-12.48-1.335-27.163,3.544-33.116,15.351
		c-8.842-10.425-23.01-14.219-36.277-14.425c-6.673-0.103-17.061,1.974-21.646,7.706C-4.211,71.833,39.3,223.314,94.924,166.861
		c9.013,9.184,19.938,15.239,32.905,9.052c15.161-7.232,24.265-30.219,30.674-44.33
		C160.221,127.802,156.246,124.561,153.308,126.087z M119.199,60.366c-1.048,0.694-1.72,1.871-1.885,3.158
		c-1.03-0.421-2.06-0.83-3.09-1.288c-0.221-0.098-0.437-0.16-0.651-0.226C115.298,61.253,117.173,60.718,119.199,60.366z
		 M45.895,152.278c1.692,1.829,3.41,3.569,5.155,5.182c2.1,2.312,4.223,4.604,6.352,6.889
		C53.094,161.42,49.256,157.213,45.895,152.278z"/>
	<path d="M115.632,2.104c-1.767-3.518-6.114-2.164-7.33,0.692c-7.857-1.254-13.025,10.603-15.434,16.197
		c-3.925,9.12-5.836,19.445-2.402,28.819c-0.953,2.298,0.667,5.442,3.747,4.499C115.576,45.773,125.625,22.017,115.632,2.104z"/>
</g>
</svg>